<?xml version="1.0" encoding="UTF-8" standalone="no"?>
<svg
   width="207.00461"
   height="80.320251"
   viewBox="0 0 163.01613 52.208163"
   fill="none"
   version="1.1"
   id="svg35"
   xmlns="http://www.w3.org/2000/svg"
>
  <g
     clip-path="url(#clip0_1658_24342)"
     id="g28"
     transform="matrix(1.2230526,0,0,1.2230526,5.1822579,-36.9861)">
    <path
       d="m 75.4848,47.5501 c 1.051,0 1.8444,-0.4439 2.3817,-1.0511 v -2.4049 c -1.9381,0.117 -3.8287,0.6072 -3.8287,2.1952 0,0.747 0.5829,1.2608 1.447,1.2608 z m 2.3817,-5.3476 v -1.0969 c 0,-0.934 -0.5373,-1.4945 -1.7276,-1.4945 -1.1906,0 -2.4517,0.4906 -3.9933,1.2372 l -1.214,-2.5214 c 1.6813,-0.8407 3.6427,-1.4247 5.3474,-1.4247 3.5953,0 4.9964,1.7518 4.9964,4.3201 v 5.2299 c 0,0.6771 0.3977,0.9811 1.0276,0.9811 v 2.3582 c -2.3583,0 -3.3392,-0.3504 -4.04,-1.5411 -1.0502,1.1208 -2.2182,1.7513 -3.8992,1.7513 -2.1941,0 -3.7353,-1.3312 -3.7353,-3.3157 0,-2.7325 2.5914,-4.1563 7.238,-4.4835 z"
       fill="#100f0d"
       id="path2" />
    <path
       d="m 84.4186,37.183 h 3.2225 l 0.1634,1.4474 c 0.9109,-0.9572 2.2416,-1.7516 3.8065,-1.7516 2.8012,0 3.9922,1.7285 3.9922,4.5536 v 8.2891 H 92.171 v -8.3826 c 0,-1.1206 -0.4666,-1.8913 -1.6346,-1.8913 -1.051,0 -1.9615,0.5366 -2.7086,1.471 v 8.8029 h -3.4092 z"
       fill="#100f0d"
       id="path4" />
    <path
       d="m 64.7321,33.3765 v 10.881 c 0,1.6811 -0.8171,2.6385 -2.2412,2.6385 -0.9545,0 -1.7051,-0.4681 -2.2918,-1.2633 l -2.3432,2.1221 c 1.2086,1.456 2.8455,2.2469 4.8221,2.2469 3.4089,0 5.5801,-1.9379 5.5801,-5.6739 V 33.3765 Z"
       fill="#100f0d"
       id="path6" />
    <path
       d="m 64.3648,60.3298 c -1.7926,-0.4537 -3.3412,-0.8453 -3.3412,-2.1776 0,-1.1123 1.0611,-1.8596 2.64,-1.8596 1.4825,0 3.0077,0.3628 4.419,1.0498 l 1.2303,-2.6142 c -1.9303,-0.9009 -3.8337,-1.3391 -5.815,-1.3391 -3.514,0 -5.968,1.9779 -5.968,4.8098 0,3.5961 2.9458,4.3623 5.5446,5.0385 1.8218,0.4739 3.3949,0.8831 3.3949,2.2465 0,1.1945 -1.049,1.9073 -2.8058,1.9073 -1.5214,0 -3.235,-0.5145 -4.8349,-1.4509 l -1.5899,2.6065 c 1.7459,1.0638 4.2634,1.7479 6.4482,1.7479 3.8719,0 6.2773,-1.8616 6.2773,-4.8575 0,-3.6911 -3.1042,-4.4766 -5.5995,-5.1074 z"
       fill="#100f0d"
       id="path8" />
    <path
       d="m 72.7296,59.9017 h -1.9848 v -2.4286 h 1.9848 v -3.1287 h 3.4323 v 3.1287 h 2.8065 v 2.4286 h -2.8065 v 6.2342 c 0,0.9339 0.3502,1.4012 1.1443,1.4012 0.6307,0 1.2144,-0.2102 1.7046,-0.5607 l 1.2615,2.0548 c -0.9583,0.747 -2.2891,1.2611 -3.6661,1.2611 -2.6155,0 -3.8766,-1.2844 -3.8766,-4.0863 z"
       fill="#100f0d"
       id="path10" />
    <path
       d="m 81.8287,57.4731 h 3.1533 l 0.2323,1.9381 c 0.9583,-1.6815 2.1486,-2.2884 3.5727,-2.2884 0.5836,0 1.121,0.0935 1.5412,0.2569 l -0.4911,3.1292 C 89.3943,60.345 88.857,60.228 88.1562,60.228 c -1.2844,0 -2.1478,0.7946 -2.9174,2.2423 v 7.5419 h -3.4101 z"
       fill="#100f0d"
       id="path12" />
    <path
       d="m 118.459,59.9017 h -1.985 v -2.4286 h 1.985 v -3.1287 h 3.432 v 3.1287 h 2.806 v 2.4286 h -2.806 v 6.2342 c 0,0.9339 0.35,1.4012 1.144,1.4012 0.63,0 1.213,-0.2102 1.704,-0.5607 L 126,69.0312 c -0.957,0.747 -2.288,1.2611 -3.665,1.2611 -2.616,0 -3.876,-1.2844 -3.876,-4.0863 z"
       fill="#100f0d"
       id="path14" />
    <path
       d="m 104.03,39.325 c 1.635,0 2.242,1.214 2.242,2.8023 h -5.067 c 0.327,-1.8212 1.425,-2.8023 2.825,-2.8023 z m -0.093,-2.4758 c -3.479,0 -6.2813,2.4758 -6.2813,6.4922 0,4.2029 2.6153,6.6545 6.3043,6.6545 1.868,0 3.62,-0.5604 5.161,-1.6347 L 107.696,46.19 c -1.05,0.6533 -2.218,1.0743 -3.479,1.0743 -1.733,0 -2.72,-0.8858 -3.016,-2.6697 h 8.084 c 0.094,-0.5335 0.232,-1.0948 0.232,-2.0238 0,-3.3625 -1.984,-5.7216 -5.58,-5.7216 z"
       fill="#100f0d"
       id="path16" />
    <path
       d="m 110.001,59.6215 c 1.633,0 2.24,1.2137 2.24,2.802 h -5.066 c 0.327,-1.8207 1.424,-2.802 2.826,-2.802 z m -0.094,-2.4759 c -3.48,0 -6.282,2.4759 -6.282,6.4923 0,4.2027 2.616,6.6544 6.305,6.6544 1.868,0 3.62,-0.5603 5.161,-1.6346 l -1.425,-2.1716 c -1.051,0.6537 -2.218,1.0747 -3.479,1.0747 -1.734,0 -2.719,-0.8859 -3.016,-2.6697 h 8.084 c 0.094,-0.5335 0.232,-1.0951 0.232,-2.0238 0,-3.3628 -1.984,-5.7217 -5.58,-5.7217 z"
       fill="#100f0d"
       id="path18" />
    <path
       d="m 96.8942,59.6212 c 1.6346,0 2.2412,1.2137 2.2412,2.802 h -5.0668 c 0.3268,-1.8209 1.4249,-2.802 2.8256,-2.802 z m -0.0934,-2.4759 c -3.4793,0 -6.2812,2.4759 -6.2812,6.4923 0,4.2026 2.6152,6.6544 6.3046,6.6544 1.8681,0 3.6198,-0.5604 5.1608,-1.6347 l -1.425,-2.1715 c -1.0499,0.6537 -2.2179,1.0746 -3.479,1.0746 -1.7334,0 -2.7198,-0.886 -3.0163,-2.6696 h 8.0843 c 0.094,-0.5335 0.232,-1.0951 0.232,-2.0238 0,-3.3628 -1.984,-5.7217 -5.5802,-5.7217 z"
       fill="#100f0d"
       id="path20" />
    <path
       d="m 7.86086,61.2585 c 3.36364,5.7351 9.59754,9.589 16.71164,9.57 C 35.2163,70.7993 43.8519,62.1169 43.8231,51.4725 43.7943,40.829 35.1112,32.1933 24.4672,32.2225 13.8236,32.2513 5.1881,40.934 5.21712,51.5774 c 0.00366,1.2946 0.13969,2.5582 0.38758,3.7812 0.0409,0.1576 0.20156,0.2432 0.35323,0.2055 L 8.64407,54.895 C 8.79788,54.8559 8.90598,54.7058 8.86874,54.5435 8.68333,53.5796 8.58372,52.5855 8.58084,51.5682 8.55715,42.7798 15.6879,35.61 24.4765,35.5862 c 8.7889,-0.0237 15.9587,7.107 15.9828,15.8954 0.0237,8.789 -7.1071,15.9593 -15.8961,15.9827 -5.8205,0.016 -10.9271,-3.109 -13.7218,-7.7727 -0.0753,-0.1395 -0.2482,-0.2054 -0.3958,-0.1308 l -2.45844,1.2987 c -0.14377,0.0757 -0.20731,0.2584 -0.1263,0.399 z"
       fill="#100f0d"
       id="path22" />
    <path
       d="m 34.68,55.6948 2.4515,1.3148 c 0.1447,0.0759 0.3375,0.0301 0.3985,-0.1224 0.673,-1.6198 1.0531,-3.3897 1.0689,-5.2445 C 38.6632,43.8802 32.4002,37.512 24.6374,37.447 l -0.1191,-6e-4 c -7.6977,0 -14.0122,6.263 -14.0767,13.9608 -0.0649,7.7634 6.1976,14.1318 13.9606,14.1967 l 0.1193,8e-4 c 3.676,0 7.0349,-1.4305 9.55,-3.7613 0.1232,-0.1077 0.1486,-0.2976 0.0338,-0.4208 l -2.0915,-1.8857 c -0.1198,-0.1087 -0.3048,-0.0889 -0.4176,0.0147 -1.8915,1.6707 -4.37,2.6888 -7.0747,2.6888 l -0.0912,-3e-4 C 18.5223,62.1906 13.756,57.3436 13.8054,51.4357 13.8544,45.5771 18.66,40.8107 24.5183,40.8107 l 0.0912,2e-4 c 5.9081,0.0495 10.6746,4.8963 10.6254,10.8037 -0.0108,1.2924 -0.2558,2.5299 -0.6899,3.6764 -0.0649,0.1611 -0.0073,0.3203 0.135,0.4038 z"
       fill="#100f0d"
       id="path24" />
    <path
       d="m 38.6977,31.5229 c -0.1308,-0.0891 -0.3134,-0.0626 -0.4043,0.072 l -1.5691,2.2758 c -0.0906,0.1315 -0.0783,0.3179 0.0548,0.414 5.3897,3.8406 8.9144,10.1359 8.9128,17.2438 -0.0016,11.6691 -9.4953,21.161 -21.165,21.1603 -11.6707,0 -21.16378,-9.4942 -21.16256,-21.1664 0.00152,-11.6677 9.49506,-21.1602 21.16626,-21.1575 2.5401,-0.0023 4.9748,0.4545 7.2342,1.2786 v -0.0023 c 0.1453,0.0541 0.3123,-0.0171 0.3742,-0.1693 l 0.9885,-2.5956 C 33.1829,28.7311 33.1132,28.5654 32.9699,28.5027 30.3362,27.5342 27.495,27 24.5306,27 11.0066,26.9973 0.00167195,37.9994 3.93625e-8,51.5239 -7.59922e-4,65.0477 11.0028,76.0525 24.5263,76.053 c 13.5241,7e-4 24.5286,-11.0008 24.5294,-24.5235 -8e-4,-8.2509 -4.0953,-15.558 -10.358,-20.0066 z"
       fill="#100f0d"
       id="path26" />
  </g>
  <defs
     id="defs33">
    <clipPath
       id="clip0_1658_24342">
      <rect
         width="126"
         height="49.6731"
         fill="#ffffff"
         transform="translate(0,27.1635)"
         id="rect30"
         x="0"
         y="0" />
    </clipPath>
  </defs>
</svg>
