<?xml version="1.0" encoding="UTF-8"?>
<svg xmlns="http://www.w3.org/2000/svg" viewBox="0 0 300 250" width="120" height="100" style="fill:#00a6d6">
<path d="M78,126.6c-2.36-3.47-6.86-5.95-13.49-7.46,5.95-1.36,9.94-3.31,11.96-5.85,2.02-2.54,3.02-7.03,3.02-13.47,0-9.53-1.41-16.45-4.28-20.73-2.87-4.3-6.63-7.15-11.28-8.54-4.65-1.41-11.49-2.11-20.54-2.11H14.8v110.06c1.72-.41,3.47-.79,5.23-1.16,1.78-.39,3.62-.78,5.44-1.16.17-.02.35-.08.54-.12,2.46-.52,4.92-1.03,7.42-1.53,1.16-.23,2.33-.45,3.49-.68,10.83-2.13,23.72-4.48,38.31-6.78h.02c.56-.1,1.12-.17,1.69-.25,1.05-.17,3.2-.56,3.2-.56.12-.41.47-2.03.47-2.03.64-3.06.95-6.9.95-11.39v-10.23c0-7.17-1.18-12.5-3.55-15.99ZM43.47,87.3c2.95.04,4.94.25,5.95.6,1.03.37,1.86,1.24,2.5,2.64.62,1.38.95,3.8.95,7.25,0,6.55-.39,10.5-1.16,11.9-.77,1.38-2.56,2.07-5.39,2.07-.68,0-1.63.02-2.85.06v-24.51ZM43.47,128.98c4.26.14,6.9.72,7.91,1.71.99,1.01,1.49,3.86,1.49,8.58v10.29c0,4.46-.56,7.25-1.67,8.37-1.12,1.14-3.7,1.78-7.73,1.92v-30.87Z"/>
<path d="M210.63,72.6c-.1-.47-.23-.93-.37-1.38-.1-.41-.23-.78-.37-1.14-.04-.14-.1-.25-.14-.37-.12-.33-.25-.64-.41-.93-.02-.06-.04-.12-.08-.17-.16-.39-.35-.74-.54-1.09l-.1-.15c-.48-.85-1.03-1.67-1.65-2.42v-.02c-.23-.27-.43-.5-.66-.76-2.11-2.33-5.27-4.09-9.46-5.31-4.2-1.24-10.21-1.84-18.02-1.84h-28.89v85.62l1.1,3.12,3.64,10.33.33.91c7.71-.6,15.6-1.1,23.6-1.49v-32.63h7.71c6.26,0,11.33-.85,15.21-2.58.64-.29,1.24-.58,1.82-.93.58-.31,1.1-.66,1.61-1.01l.62-.48c.45-.35.85-.72,1.24-1.09.27-.27.52-.54.76-.81.17-.23.37-.45.54-.7.39-.54.74-1.1,1.05-1.71.14-.23.25-.47.37-.72.1-.19.17-.41.27-.62.25-.66.48-1.38.7-2.17.1-.39.19-.79.27-1.22.1-.43.17-.87.25-1.34.08-.45.16-.93.21-1.41.04-.31.08-.62.12-.95.06-.56.12-1.14.15-1.74.06-.6.1-1.22.12-1.86.06-1.28.1-2.64.1-4.07v-9.61c0-6.99-.37-11.99-1.12-15.27ZM187.76,94.01c0,4.09-.5,6.76-1.53,8.06-1.01,1.3-2.85,1.94-5.48,1.94-.58,0-1.3-.02-2.11-.06v-28.06c3.72,0,6.18.56,7.36,1.69,1.18,1.14,1.76,3.6,1.76,7.36v9.07Z"/>
<path d="M248.29,101.54v-19.18c0-5.56-.31-9.05-.93-10.42-.6-1.38-1.96-2.07-4.05-2.07-2.36,0-3.86.83-4.5,2.52s-.95,5.31-.95,10.91v51.21c0,5.37.31,8.85.95,10.5.64,1.63,2.07,2.44,4.3,2.44s3.53-.81,4.19-2.46c.66-1.63.99-5.48.99-11.53v-13.87h28.68v4.3c0,11.41-.81,19.51-2.42,24.3-.93,2.75-2.52,5.31-4.77,7.67-15.5-.97-31.51-1.45-47.74-1.45-2.48,0-4.96.02-7.44.04-1.18-1.67-2.11-3.53-2.75-5.52-1.78-5.39-2.65-13.49-2.65-24.28v-2.19c.62-.48,1.22-1.01,1.76-1.55.33-.33.64-.66.93-.99.21-.23.41-.48.6-.74.43-.52.83-1.09,1.18-1.69.12-.16.21-.33.31-.5.21-.37.43-.76.62-1.16.1-.17.19-.37.27-.56.33-.76.64-1.57.91-2.46.1-.29.17-.6.27-.91.08-.29.16-.62.23-.93.12-.47.21-.95.31-1.45.14-.62.23-1.26.33-1.92.12-.66.19-1.36.27-2.05.06-.54.1-1.09.14-1.65.15-1.96.23-4.09.23-6.41v-9.61c0-.58,0-1.14-.02-1.71,0-.56,0-1.1-.02-1.63,0-.35,0-.7-.02-1.03,0-.29,0-.56-.02-.81-.02-.62-.04-1.2-.08-1.78-.08-1.72-.19-3.27-.33-4.69-.1-.95-.21-1.82-.35-2.65-.04-.27-.1-.54-.14-.79-.1-.52-.19-1.03-.31-1.49-.12-.52-.25-1.05-.41-1.55-.14-.47-.27-.93-.45-1.38-.1-.33-.21-.64-.35-.93-.16-.43-.33-.81-.52-1.22-.23-.52-.5-1.05-.79-1.55.35-.54.72-1.09,1.1-1.61,2.71-3.66,6.45-6.57,11.24-8.68,4.81-2.11,10.31-3.16,16.53-3.16,8.45,0,15.42,1.63,20.91,4.88,5.5,3.27,9.11,7.34,10.83,12.23,1.72,4.86,2.6,12.46,2.6,22.75v10.48h-28.68Z"/>
<path d="M104.66,109.37c2.58-7.83,5.15-15.68,5.87-17.87.01-.04.08-.02.07.02l-5.43,26.72-1.22,6.06c.52-.1,1.05-.17,1.57-.23.37-.06.76-.12,1.14-.16.02,0,.04-.02.08-.02.08,0,.19-.02.29-.04l.02-.1v-.04l8.94-43.58s.07-.04.07,0l.25,40.07v.17l.02,2.93h.6c.25,0,.5,0,.76.02.55,0,1.08,0,1.61.02.02,0,.04-.02.04-.04l.04-5.78.31-37.36s.06-.05.07,0l8.15,43.72v.02l.04.17,2.25.33c.25.04.5.08.76.12l-1.14-6.06-5.03-26.86s.06-.06.07-.02l10.35,33.6.06.19c.06,0,.12.02.17.04l3.06.76c.06,0,.12.02.15.04-.64-2.11-1.3-4.28-1.96-6.47-2.96-9.8-6.14-20.33-9.4-30.81-.62-1.96-1.22-3.91-1.82-5.87-.83-2.67-1.69-5.33-2.52-7.96-1.26-3.95-2.52-7.83-3.76-11.61-.33-1.05-1.8-1.07-2.17-.02-6.99,19.98-14.4,42.72-21.39,62.64v.02l3.7-.94s.02-.01.03-.02l5.32-15.81Z"/>
<path d="M148.35,155.62l.79,2.25-4.03.47-1.9.23-23.04,2.67-27.94,3.27-6.03.64s.23-1.14.33-1.74c.04-.19.06-.39.08-.6.08-.47.14-.95.19-1.43.04-.27.08-.54.1-.83.12-1.18.21-2.44.27-3.76.04-.52.06-1.05.06-1.59.02-.81.04-1.67.04-2.54v-2.34l3.14-8.72,2.36-6.61.83-2.33c1.03-.35,2.05-.68,3.08-.97l2.17-.58c.47-.14.93-.23,1.38-.33.64-.16,1.26-.29,1.88-.41.43-.1.87-.17,1.3-.25.08-.02.17-.04.27-.06.27-.04.52-.1.79-.14.06,0,.1-.02.15-.02.93-.16,1.86-.29,2.79-.41l1.09-.12h.02c.54-.06,1.1-.12,1.65-.16.54-.04,1.09-.08,1.61-.12,1.61-.1,3.14-.14,4.65-.14.45,0,.89,0,1.32.02.47,0,.93,0,1.38.02.1,0,.19.02.29.02.87.02,1.72.08,2.56.14,1.59.1,3.1.25,4.53.45.06,0,.12.02.17.02.37.06.74.1,1.09.16.48.08.95.14,1.4.21s.89.14,1.34.21c.99.19,1.92.37,2.79.56.25.06.5.1.74.15.25.06.48.12.7.17.27.06.52.12.78.17.48.12.95.23,1.36.35l.78.21c1.69.47,2.62.81,2.62.81l1.05,2.95,7.05,20.02Z"/>
<path d="M238.85,164.38c-.38,0-.63.15-.75.43-.12.29-.18.96-.18,2.01v9.94c0,1.18.06,1.9.17,2.14.11.24.36.36.74.36s.62-.14.74-.43.18-.93.18-1.93v-10.09c0-1.08-.05-1.76-.16-2.03-.11-.27-.35-.41-.74-.41Z"/>
<path d="M291.25,160.78c-.41-.02-.81-.06-1.22-.08-2.64-.21-5.25-.41-7.87-.56-1.38-.1-2.75-.19-4.11-.27-.14,0-.27-.02-.41-.02-.25-.02-.48-.02-.72-.04-.12-.02-.21-.02-.31-.02-.12,0-.25-.02-.37-.02h-.06c-1.03-.06-2.03-.1-3.06-.16-14.34-.78-28.52-1.1-42.43-1.09-2.91,0-5.81.02-8.7.06-2.56.04-5.1.08-7.61.14-6.67.14-13.23.37-19.74.64-1.96.08-3.89.17-5.81.27-8.76.43-17.36.99-25.73,1.63-.99.08-1.98.15-2.95.23s-1.96.16-2.93.25h-.1l-2.79.23c-9.49.81-18.72,1.74-27.57,2.75-2.44.27-4.84.56-7.23.85-1.92.21-3.8.45-5.68.7-8.1,1.03-15.87,2.09-23.23,3.22-.1,0-.21.02-.31.04-2.25.33-4.46.68-6.63,1.01l-.08.02-.79.12c-13.06,2.05-24.76,4.15-34.84,6.1-5.62,1.09-10.71,2.13-15.27,3.08-2.46.52-4.75,1.01-6.88,1.49-.5.1-.99.21-1.47.33-1.45.31-2.83.62-4.11.91-.25.06-.52.12-.76.17-.25.06-.5.12-.76.17-.48.12-.95.21-1.41.33-6.36,1.49-9.8,2.4-9.8,2.4h278.17l6.77-24.8-1.22-.1ZM230.85,178.54v3.47h-11.19v-2.91c3.32-5.42,5.29-8.77,5.91-10.06s.94-2.29.94-3.01c0-.55-.09-.97-.28-1.24-.19-.27-.48-.41-.86-.41s-.67.15-.86.45c-.19.3-.28.9-.28,1.8v1.94h-4.56v-.74c0-1.14.06-2.04.18-2.7.12-.66.41-1.31.87-1.94.46-.64,1.06-1.12,1.8-1.45s1.62-.49,2.66-.49c2.02,0,3.55.5,4.59,1.5,1.04,1,1.55,2.27,1.55,3.81,0,1.17-.29,2.4-.88,3.7-.58,1.3-2.3,4.06-5.15,8.28h5.58ZM244.82,175.33c0,1.54-.08,2.67-.25,3.37-.17.71-.52,1.36-1.04,1.98s-1.17,1.05-1.91,1.32-1.58.4-2.5.4c-1.22,0-2.23-.14-3.03-.42s-1.45-.72-1.93-1.32-.82-1.22-1.02-1.88c-.2-.66-.3-1.71-.3-3.14v-7.11c0-1.87.16-3.27.48-4.2s.96-1.68,1.93-2.24,2.12-.84,3.49-.84c1.12,0,2.11.2,3,.59.88.39,1.54.87,1.98,1.43.44.56.73,1.2.89,1.9.16.7.23,1.83.23,3.37v6.8ZM257.61,178.54v3.47h-11.19v-2.91c3.32-5.42,5.29-8.77,5.91-10.06s.94-2.29.94-3.01c0-.55-.09-.97-.28-1.24-.19-.27-.48-.41-.86-.41s-.67.15-.86.45c-.19.3-.28.9-.28,1.8v1.94h-4.56v-.74c0-1.14.06-2.04.18-2.7.12-.66.41-1.31.87-1.94.46-.64,1.06-1.12,1.8-1.45s1.62-.49,2.66-.49c2.02,0,3.55.5,4.59,1.5,1.04,1,1.55,2.27,1.55,3.81,0,1.17-.29,2.4-.88,3.7-.58,1.3-2.3,4.06-5.15,8.28h5.58ZM271.68,175.57c0,1.44-.07,2.5-.21,3.18-.14.68-.43,1.3-.89,1.88-.45.57-1.08,1.02-1.89,1.32-.81.31-1.8.46-2.96.46-1.31,0-2.46-.23-3.46-.69-1-.46-1.71-1.14-2.13-2.04s-.63-2.31-.63-4.2v-1.11h5.08v1.27c0,1.32.05,2.25.14,2.81.09.55.41.83.96.83.25,0,.46-.08.61-.24.16-.16.24-.33.25-.52s.03-.99.04-2.4v-4.04c0-.76-.08-1.28-.24-1.56-.16-.28-.42-.42-.79-.42-.24,0-.43.07-.59.21s-.26.3-.31.46c-.05.16-.07.54-.07,1.14h-5.04l.21-10.27h10.91v3.26h-6.31v3.46c.79-.93,1.8-1.4,3.05-1.4,1.4,0,2.46.39,3.18,1.18.72.78,1.08,2.29,1.08,4.52v2.91Z"/>
</svg>
